{
	"patcher" : 	{
		"fileversion" : 1,
		"appversion" : 		{
			"major" : 8,
			"minor" : 1,
			"revision" : 5,
			"architecture" : "x64",
			"modernui" : 1
		}
,
		"classnamespace" : "box",
		"rect" : [ 390.0, 104.0, 657.0, 628.0 ],
		"bglocked" : 0,
		"openinpresentation" : 0,
		"default_fontsize" : 12.0,
		"default_fontface" : 0,
		"default_fontname" : "Arial",
		"gridonopen" : 1,
		"gridsize" : [ 15.0, 15.0 ],
		"gridsnaponopen" : 1,
		"objectsnaponopen" : 1,
		"statusbarvisible" : 2,
		"toolbarvisible" : 1,
		"lefttoolbarpinned" : 0,
		"toptoolbarpinned" : 0,
		"righttoolbarpinned" : 0,
		"bottomtoolbarpinned" : 0,
		"toolbars_unpinned_last_save" : 0,
		"tallnewobj" : 0,
		"boxanimatetime" : 200,
		"enablehscroll" : 1,
		"enablevscroll" : 1,
		"devicewidth" : 0.0,
		"description" : "",
		"digest" : "",
		"tags" : "",
		"style" : "",
		"subpatcher_template" : "",
		"assistshowspatchername" : 0,
		"boxes" : [ 			{
				"box" : 				{
					"id" : "obj-4",
					"maxclass" : "newobj",
					"numinlets" : 1,
					"numoutlets" : 3,
					"outlettype" : [ "float", "float", "" ],
					"patching_rect" : [ 50.0, 208.655187010765076, 119.0, 22.0 ],
					"text" : "fzero~"
				}

			}
, 			{
				"box" : 				{
					"comment" : "Pitch (Hz)",
					"id" : "obj-9",
					"index" : 1,
					"maxclass" : "outlet",
					"numinlets" : 1,
					"numoutlets" : 0,
					"patching_rect" : [ 50.0, 974.471274534187273, 30.0, 30.0 ]
				}

			}
, 			{
				"box" : 				{
					"comment" : "High Frequency (Hz)",
					"id" : "obj-3",
					"index" : 3,
					"maxclass" : "inlet",
					"numinlets" : 0,
					"numoutlets" : 1,
					"outlettype" : [ "" ],
					"patching_rect" : [ 335.357145071029663, 39.999999534187317, 30.0, 30.0 ]
				}

			}
, 			{
				"box" : 				{
					"comment" : "Low Frequency (Hz)",
					"id" : "obj-2",
					"index" : 2,
					"maxclass" : "inlet",
					"numinlets" : 0,
					"numoutlets" : 1,
					"outlettype" : [ "" ],
					"patching_rect" : [ 192.5, 39.999999534187317, 30.0, 30.0 ]
				}

			}
, 			{
				"box" : 				{
					"comment" : "Smoothness (0-1)",
					"id" : "obj-1",
					"index" : 4,
					"maxclass" : "inlet",
					"numinlets" : 0,
					"numoutlets" : 1,
					"outlettype" : [ "" ],
					"patching_rect" : [ 499.206356167793274, 43.174602757987977, 30.0, 30.0 ]
				}

			}
, 			{
				"box" : 				{
					"id" : "obj-531",
					"maxclass" : "comment",
					"numinlets" : 1,
					"numoutlets" : 0,
					"patching_rect" : [ 394.850047409534454, 627.471840560436249, 94.761900901794434, 20.0 ],
					"text" : "high frequency"
				}

			}
, 			{
				"box" : 				{
					"id" : "obj-530",
					"maxclass" : "comment",
					"numinlets" : 1,
					"numoutlets" : 0,
					"patching_rect" : [ 384.107593774795532, 663.249618232250214, 101.467338502407074, 20.0 ],
					"text" : "low frequency"
				}

			}
, 			{
				"box" : 				{
					"format" : 6,
					"id" : "obj-252",
					"maxclass" : "flonum",
					"numinlets" : 1,
					"numoutlets" : 2,
					"outlettype" : [ "", "bang" ],
					"parameter_enable" : 0,
					"patching_rect" : [ 139.558822989463806, 513.300203084945679, 50.0, 22.0 ]
				}

			}
, 			{
				"box" : 				{
					"id" : "obj-250",
					"maxclass" : "newobj",
					"numinlets" : 6,
					"numoutlets" : 1,
					"outlettype" : [ "" ],
					"patching_rect" : [ 119.5, 474.883891463279724, 110.0, 22.0 ],
					"text" : "scale 0. 1. 0 20000"
				}

			}
, 			{
				"box" : 				{
					"id" : "obj-249",
					"maxclass" : "newobj",
					"numinlets" : 6,
					"numoutlets" : 1,
					"outlettype" : [ "" ],
					"patching_rect" : [ 119.5, 400.973773002624512, 110.0, 22.0 ],
					"text" : "scale 0 20000 0. 1."
				}

			}
, 			{
				"box" : 				{
					"id" : "obj-244",
					"maxclass" : "comment",
					"numinlets" : 1,
					"numoutlets" : 0,
					"patching_rect" : [ 228.107593774795532, 358.223069250583649, 150.0, 20.0 ],
					"text" : "Sensitivity 0. - 1."
				}

			}
, 			{
				"box" : 				{
					"id" : "obj-245",
					"maxclass" : "newobj",
					"numinlets" : 1,
					"numoutlets" : 1,
					"outlettype" : [ "" ],
					"patching_rect" : [ 172.5, 321.094667017459869, 87.0, 22.0 ],
					"text" : "loadmess #3"
				}

			}
, 			{
				"box" : 				{
					"format" : 6,
					"id" : "obj-246",
					"maxclass" : "flonum",
					"numinlets" : 1,
					"numoutlets" : 2,
					"outlettype" : [ "", "bang" ],
					"parameter_enable" : 0,
					"patching_rect" : [ 172.5, 358.223069250583649, 50.0, 22.0 ]
				}

			}
, 			{
				"box" : 				{
					"id" : "obj-247",
					"maxclass" : "newobj",
					"numinlets" : 2,
					"numoutlets" : 2,
					"outlettype" : [ "", "" ],
					"patching_rect" : [ 119.5, 437.883891463279724, 72.0, 22.0 ],
					"text" : "aaf.smoothr",
					"varname" : "vz.smoothr[3]"
				}

			}
, 			{
				"box" : 				{
					"id" : "obj-241",
					"maxclass" : "newobj",
					"numinlets" : 2,
					"numoutlets" : 2,
					"outlettype" : [ "int", "int" ],
					"patching_rect" : [ 295.5, 662.249618232250214, 84.0, 22.0 ],
					"text" : "maximum #1"
				}

			}
, 			{
				"box" : 				{
					"id" : "obj-240",
					"maxclass" : "newobj",
					"numinlets" : 2,
					"numoutlets" : 2,
					"outlettype" : [ "int", "int" ],
					"patching_rect" : [ 295.5, 627.471840560436249, 87.0, 22.0 ],
					"text" : "minimum #2"
				}

			}
, 			{
				"box" : 				{
					"id" : "obj-44",
					"maxclass" : "comment",
					"numinlets" : 1,
					"numoutlets" : 0,
					"patching_rect" : [ 404.107593774795532, 773.249617278575897, 104.838709354400635, 20.0 ],
					"text" : "Sensitivity 0. - 1."
				}

			}
, 			{
				"box" : 				{
					"id" : "obj-46",
					"maxclass" : "newobj",
					"numinlets" : 1,
					"numoutlets" : 1,
					"outlettype" : [ "" ],
					"patching_rect" : [ 348.5, 736.121215045452118, 87.0, 22.0 ],
					"text" : "loadmess #3"
				}

			}
, 			{
				"box" : 				{
					"format" : 6,
					"id" : "obj-48",
					"maxclass" : "flonum",
					"numinlets" : 1,
					"numoutlets" : 2,
					"outlettype" : [ "", "bang" ],
					"parameter_enable" : 0,
					"patching_rect" : [ 348.5, 773.249617278575897, 50.0, 22.0 ]
				}

			}
, 			{
				"box" : 				{
					"id" : "obj-36",
					"maxclass" : "newobj",
					"numinlets" : 6,
					"numoutlets" : 1,
					"outlettype" : [ "" ],
					"patching_rect" : [ 295.5, 698.911545217037201, 110.0, 22.0 ],
					"text" : "scale #1 #2 0. 1."
				}

			}
, 			{
				"box" : 				{
					"id" : "obj-35",
					"maxclass" : "newobj",
					"numinlets" : 2,
					"numoutlets" : 2,
					"outlettype" : [ "", "" ],
					"patching_rect" : [ 295.5, 813.80323813068776, 72.0, 22.0 ],
					"text" : "aaf.smoothr",
					"varname" : "vz.smoothr[2]"
				}

			}
, 			{
				"box" : 				{
					"format" : 6,
					"id" : "obj-32",
					"maxclass" : "flonum",
					"numinlets" : 1,
					"numoutlets" : 2,
					"outlettype" : [ "", "bang" ],
					"parameter_enable" : 0,
					"patching_rect" : [ 295.5, 591.49735152721405, 50.0, 22.0 ]
				}

			}
, 			{
				"box" : 				{
					"fontname" : "Arial",
					"fontsize" : 13.0,
					"id" : "obj-19",
					"maxclass" : "newobj",
					"numinlets" : 1,
					"numoutlets" : 2,
					"outlettype" : [ "", "" ],
					"patching_rect" : [ 119.5, 551.252060174942017, 195.0, 23.0 ],
					"text" : "if $f1 == 0 then $f1 else out2 $f1"
				}

			}
, 			{
				"box" : 				{
					"format" : 6,
					"id" : "obj-20",
					"maxclass" : "flonum",
					"numinlets" : 1,
					"numoutlets" : 2,
					"outlettype" : [ "", "bang" ],
					"parameter_enable" : 0,
					"patching_rect" : [ 119.5, 267.014081239700317, 50.0, 22.0 ]
				}

			}
, 			{
				"box" : 				{
					"comment" : "Input Signal",
					"id" : "obj-534",
					"index" : 1,
					"maxclass" : "inlet",
					"numinlets" : 0,
					"numoutlets" : 1,
					"outlettype" : [ "" ],
					"patching_rect" : [ 50.0, 39.999999534187317, 30.0, 30.0 ]
				}

			}
, 			{
				"box" : 				{
					"comment" : "Register Position (0-1)",
					"id" : "obj-535",
					"index" : 2,
					"maxclass" : "outlet",
					"numinlets" : 1,
					"numoutlets" : 0,
					"patching_rect" : [ 295.5, 974.471274534187273, 30.0, 30.0 ]
				}

			}
 ],
		"lines" : [ 			{
				"patchline" : 				{
					"destination" : [ "obj-246", 0 ],
					"midpoints" : [ 508.706356167793274, 306.0, 138.0, 306.0, 138.0, 354.0, 182.0, 354.0 ],
					"order" : 1,
					"source" : [ "obj-1", 0 ]
				}

			}
, 			{
				"patchline" : 				{
					"destination" : [ "obj-48", 0 ],
					"midpoints" : [ 508.706356167793274, 766.936508059501648, 358.0, 766.936508059501648 ],
					"order" : 0,
					"source" : [ "obj-1", 0 ]
				}

			}
, 			{
				"patchline" : 				{
					"destination" : [ "obj-32", 0 ],
					"source" : [ "obj-19", 1 ]
				}

			}
, 			{
				"patchline" : 				{
					"destination" : [ "obj-241", 1 ],
					"midpoints" : [ 202.0, 180.0, 392.386351108551025, 180.0, 392.386351108551025, 657.0, 370.0, 657.0 ],
					"order" : 0,
					"source" : [ "obj-2", 0 ]
				}

			}
, 			{
				"patchline" : 				{
					"destination" : [ "obj-36", 1 ],
					"midpoints" : [ 202.0, 180.0, 38.571420192718506, 180.0, 38.571420192718506, 306.0, 108.747831106185913, 306.0, 108.747831106185913, 693.0, 323.199999999999989, 693.0 ],
					"order" : 1,
					"source" : [ "obj-2", 0 ]
				}

			}
, 			{
				"patchline" : 				{
					"destination" : [ "obj-249", 0 ],
					"source" : [ "obj-20", 0 ]
				}

			}
, 			{
				"patchline" : 				{
					"destination" : [ "obj-241", 0 ],
					"source" : [ "obj-240", 0 ]
				}

			}
, 			{
				"patchline" : 				{
					"destination" : [ "obj-36", 0 ],
					"source" : [ "obj-241", 0 ]
				}

			}
, 			{
				"patchline" : 				{
					"destination" : [ "obj-246", 0 ],
					"source" : [ "obj-245", 0 ]
				}

			}
, 			{
				"patchline" : 				{
					"destination" : [ "obj-247", 1 ],
					"source" : [ "obj-246", 0 ]
				}

			}
, 			{
				"patchline" : 				{
					"destination" : [ "obj-250", 0 ],
					"source" : [ "obj-247", 0 ]
				}

			}
, 			{
				"patchline" : 				{
					"destination" : [ "obj-247", 0 ],
					"source" : [ "obj-249", 0 ]
				}

			}
, 			{
				"patchline" : 				{
					"destination" : [ "obj-19", 0 ],
					"order" : 1,
					"source" : [ "obj-250", 0 ]
				}

			}
, 			{
				"patchline" : 				{
					"destination" : [ "obj-252", 0 ],
					"order" : 0,
					"source" : [ "obj-250", 0 ]
				}

			}
, 			{
				"patchline" : 				{
					"destination" : [ "obj-240", 1 ],
					"midpoints" : [ 344.857145071029663, 345.0, 373.0, 345.0 ],
					"order" : 0,
					"source" : [ "obj-3", 0 ]
				}

			}
, 			{
				"patchline" : 				{
					"destination" : [ "obj-36", 2 ],
					"midpoints" : [ 344.857145071029663, 345.0, 382.901098847389221, 345.0, 382.901098847389221, 660.0, 381.0, 660.0, 381.0, 690.0, 341.399999999999977, 690.0 ],
					"order" : 1,
					"source" : [ "obj-3", 0 ]
				}

			}
, 			{
				"patchline" : 				{
					"destination" : [ "obj-240", 0 ],
					"source" : [ "obj-32", 0 ]
				}

			}
, 			{
				"patchline" : 				{
					"destination" : [ "obj-535", 0 ],
					"midpoints" : [ 305.0, 837.0, 305.0, 837.0 ],
					"source" : [ "obj-35", 0 ]
				}

			}
, 			{
				"patchline" : 				{
					"destination" : [ "obj-35", 0 ],
					"source" : [ "obj-36", 0 ]
				}

			}
, 			{
				"patchline" : 				{
					"destination" : [ "obj-20", 0 ],
					"order" : 0,
					"source" : [ "obj-4", 0 ]
				}

			}
, 			{
				"patchline" : 				{
					"destination" : [ "obj-9", 0 ],
					"order" : 1,
					"source" : [ "obj-4", 0 ]
				}

			}
, 			{
				"patchline" : 				{
					"destination" : [ "obj-48", 0 ],
					"source" : [ "obj-46", 0 ]
				}

			}
, 			{
				"patchline" : 				{
					"destination" : [ "obj-35", 1 ],
					"source" : [ "obj-48", 0 ]
				}

			}
, 			{
				"patchline" : 				{
					"destination" : [ "obj-4", 0 ],
					"source" : [ "obj-534", 0 ]
				}

			}
 ]
	}

}
